{
	"asset":{
		"version":"2.0",
		"generator":"Created using the official Cinema 4D glTF Exporter 1.000x284978"
	},
	"scenes":[{
		"nodes":[0]
	}],
	"nodes":[{
		"name":"Null.1",
		"translation":[-0.1671140044927597,
		3.621725559234619,
		0.043149206787347797],
		"rotation":[0.0,
		0.0,
		0.0,
		-1.0],
		"scale":[1.0,
		1.0,
		1.0],
		"children":[1,
		2]
	},
	{
		"name":"Null.1-Mat.4",
		"mesh":0
	},
	{
		"name":"Null.1-Mat.3",
		"mesh":1
	}],
	"buffers":[{
		"uri":"data:application/octet-stream;base64,",
		"byteLength":1120
	},
	{
		"uri":"data:application/octet-stream;base64,",
		"byteLength":226232
	}],
	"meshes":[{
		"name":"Null.1-Mat.4",
		"primitives":[{
			"attributes":{
				"POSITION":1,
				"NORMAL":2,
				"TEXCOORD_0":3
			},
			"indices":0,
			"material":0
		}]
	},
	{
		"name":"Null.1-Mat.3",
		"primitives":[{
			"attributes":{
				"POSITION":5,
				"NORMAL":6,
				"TEXCOORD_0":7
			},
			"indices":4,
			"material":1
		}]
	}],
	"accessors":[{
		"bufferView":0,
		"count":48,
		"type":"SCALAR",
		"componentType":5123,
		"byteOffset":0,
		"min":[0],
		"max":[31]
	},
	{
		"bufferView":1,
		"count":32,
		"type":"VEC3",
		"componentType":5126,
		"byteOffset":0,
		"min":[-12.85678482055664,
		-4.67473840713501,
		-22.117284774780275],
		"max":[12.904138565063477,
		4.2797627449035648,
		22.105058670043947]
	},
	{
		"bufferView":1,
		"count":32,
		"type":"VEC3",
		"componentType":5126,
		"byteOffset":12,
		"min":[-1.0,
		-1.0,
		-1.0],
		"max":[1.0,
		1.0,
		1.0]
	},
	{
		"bufferView":1,
		"count":32,
		"type":"VEC2",
		"componentType":5126,
		"byteOffset":24,
		"min":[0.0,
		0.0],
		"max":[0.0,
		0.0]
	},
	{
		"bufferView":2,
		"count":15708,
		"type":"SCALAR",
		"componentType":5123,
		"byteOffset":0,
		"min":[0],
		"max":[6087]
	},
	{
		"bufferView":3,
		"count":6088,
		"type":"VEC3",
		"componentType":5126,
		"byteOffset":0,
		"min":[-13.197662353515625,
		-4.978638648986816,
		-22.20203971862793],
		"max":[13.232016563415528,
		4.63322639465332,
		22.22644805908203]
	},
	{
		"bufferView":3,
		"count":6088,
		"type":"VEC3",
		"componentType":5126,
		"byteOffset":12,
		"min":[-1.0,
		-1.0,
		-1.0],
		"max":[1.0,
		1.0,
		1.0]
	},
	{
		"bufferView":3,
		"count":6088,
		"type":"VEC2",
		"componentType":5126,
		"byteOffset":24,
		"min":[0.0,
		0.0],
		"max":[1.0,
		1.0]
	}],
	"bufferViews":[{
		"buffer":0,
		"byteOffset":0,
		"byteLength":96,
		"target":34963
	},
	{
		"buffer":0,
		"byteOffset":96,
		"byteLength":1024,
		"target":34962,
		"byteStride":32
	},
	{
		"buffer":1,
		"byteOffset":0,
		"byteLength":31416,
		"target":34963
	},
	{
		"buffer":1,
		"byteOffset":31416,
		"byteLength":194816,
		"target":34962,
		"byteStride":32
	}],
	"materials":[{
		"pbrMetallicRoughness":{
			"baseColorFactor":[1.0,
			1.0,
			1.0,
			1.0],
			"metallicFactor":1.0,
			"roughnessFactor":1.0
		},
		"emissiveFactor":[0.0,
		0.0,
		0.0],
		"alphaMode":"OPAQUE",
		"doubleSided":true,
		"name":"Mat.4"
	},
	{
		"pbrMetallicRoughness":{
			"baseColorFactor":[0.0,
			0.0,
			0.0,
			1.0],
			"metallicFactor":1.0,
			"roughnessFactor":1.0
		},
		"emissiveFactor":[0.0,
		0.0,
		0.0],
		"alphaMode":"OPAQUE",
		"doubleSided":true,
		"name":"Mat.3"
	}]
}