{
	"asset":{
		"version":"2.0",
		"generator":"Created using the official Cinema 4D glTF Exporter 1.000x284978"
	},
	"scenes":[{
		"nodes":[0,
		1]
	}],
	"nodes":[{
		"name":"fancy_picture_frame_01",
		"translation":[0.0,
		13.521479606628418,
		8.279518360515027e-16],
		"rotation":[0.7071067690849304,
		0.0,
		0.0,
		-0.7071067690849304],
		"mesh":0,
		"scale":[100.0,
		100.0,
		100.0]
	},
	{
		"name":"fancy_picture_frame_01_canvas",
		"translation":[0.0,
		13.521479606628418,
		8.279518360515027e-16],
		"rotation":[0.7071067690849304,
		0.0,
		0.0,
		-0.7071067690849304],
		"mesh":1,
		"scale":[100.0,
		100.0,
		100.0]
	}],
	"meshes":[{
		"name":"fancy_picture_frame_01",
		"primitives":[{
			"attributes":{
				"POSITION":1,
				"NORMAL":2,
				"TEXCOORD_0":3
			},
			"indices":0
		}]
	},
	{
		"name":"fancy_picture_frame_01_canvas",
		"primitives":[{
			"attributes":{
				"POSITION":5,
				"NORMAL":6,
				"TEXCOORD_0":7
			},
			"indices":4
		}]
	}],
	"accessors":[{
		"bufferView":0,
		"type":"SCALAR",
		"componentType":5123,
		"count":2808,
		"byteOffset":0,
		"min":[0],
		"max":[628]
	},
	{
		"bufferView":1,
		"type":"VEC3",
		"componentType":5126,
		"count":629,
		"byteOffset":0,
		"min":[-0.1746952086687088,
		-0.012684102170169354,
		-0.13445539772510529],
		"max":[0.1746952086687088,
		-0.001100290915928781,
		0.1344553828239441]
	},
	{
		"bufferView":1,
		"type":"VEC3",
		"componentType":5126,
		"count":629,
		"byteOffset":12,
		"min":[-1.0,
		-1.0,
		-1.0],
		"max":[1.0,
		1.0,
		1.0]
	},
	{
		"bufferView":1,
		"type":"VEC2",
		"componentType":5126,
		"count":629,
		"byteOffset":24,
		"min":[0.005340241361409426,
		0.003951430320739746],
		"max":[0.9964888691902161,
		0.9973735809326172]
	},
	{
		"bufferView":2,
		"type":"SCALAR",
		"componentType":5123,
		"count":6,
		"byteOffset":0,
		"min":[0],
		"max":[3]
	},
	{
		"bufferView":3,
		"type":"VEC3",
		"componentType":5126,
		"count":4,
		"byteOffset":0,
		"min":[-0.15646904706954957,
		-0.00381166092120111,
		-0.11654148250818253],
		"max":[0.15603967010974885,
		-0.003811643226072192,
		0.1153818815946579]
	},
	{
		"bufferView":3,
		"type":"VEC3",
		"componentType":5126,
		"count":4,
		"byteOffset":12,
		"min":[1.2726902966556358e-14,
		-1.0,
		7.677884639178956e-8],
		"max":[1.2726903813589305e-14,
		-1.0,
		7.677884639178956e-8]
	},
	{
		"bufferView":3,
		"type":"VEC2",
		"componentType":5126,
		"count":4,
		"byteOffset":24,
		"min":[0.032254427671432498,
		0.12529850006103517],
		"max":[0.9686325788497925,
		0.8202165365219116]
	}],
	"bufferViews":[{
		"buffer":0,
		"byteOffset":0,
		"byteLength":5616,
		"target":34963
	},
	{
		"buffer":0,
		"byteOffset":5616,
		"byteStride":32,
		"byteLength":20128,
		"target":34962
	},
	{
		"buffer":1,
		"byteOffset":0,
		"byteLength":12,
		"target":34963
	},
	{
		"buffer":1,
		"byteOffset":12,
		"byteStride":32,
		"byteLength":128,
		"target":34962
	}],
	"buffers":[{
		"uri":"data:application/octet-stream;base64,",
		"byteLength":25744
	},
	{
		"uri":"data:application/octet-stream;base64,",
		"byteLength":140
	}]
}