{
	"asset":{
		"version":"2.0",
		"generator":"Created using the official Cinema 4D glTF Exporter 1.000x284978"
	},
	"scenes":[{
		"nodes":[0,
		1,
		2,
		3,
		4]
	}],
	"nodes":[{
		"name":"Human.1",
		"translation":[31.128440856933595,
		-2.186424732208252,
		35.79239273071289],
		"rotation":[0.029427332803606988,
		0.9935803413391113,
		0.003233823459595442,
		-0.10918635874986649],
		"scale":[1.0,
		1.0,
		1.0],
		"mesh":0
	},
	{
		"name":"Landscape.1",
		"translation":[32.06175231933594,
		-7.109099864959717,
		42.63966369628906],
		"rotation":[0.0,
		0.0,
		0.029604485258460046,
		-0.9995616674423218],
		"scale":[1.0,
		1.0,
		1.0],
		"mesh":1
	},
	{
		"name":"Human",
		"translation":[-28.862154006958009,
		3.244250535964966,
		66.39623260498047],
		"rotation":[0.0,
		-0.9772239923477173,
		0.0,
		-0.21221041679382325],
		"scale":[1.0,
		1.0,
		1.0],
		"mesh":2
	},
	{
		"name":"Human.001",
		"translation":[-35.641502380371097,
		4.870743751525879,
		68.55233001708985],
		"rotation":[0.0,
		-0.9063078165054321,
		0.0,
		-0.4226182699203491],
		"scale":[1.0,
		1.0,
		1.0],
		"mesh":3
	},
	{
		"name":"Landscape",
		"translation":[-36.83115005493164,
		0.0,
		66.95852661132813],
		"rotation":[0.0,
		0.0,
		0.0,
		-1.0],
		"scale":[1.0,
		1.0,
		1.0],
		"mesh":4
	}],
	"meshes":[{
		"name":"Human.1",
		"primitives":[{
			"attributes":{
				"POSITION":1,
				"NORMAL":2,
				"TEXCOORD_0":3
			},
			"indices":0,
			"material":0
		}]
	},
	{
		"name":"Landscape.1",
		"primitives":[{
			"attributes":{
				"POSITION":5,
				"NORMAL":6,
				"TEXCOORD_0":7
			},
			"indices":4,
			"material":0
		}]
	},
	{
		"name":"Human",
		"primitives":[{
			"attributes":{
				"POSITION":9,
				"NORMAL":10,
				"TEXCOORD_0":11
			},
			"indices":8,
			"material":1
		}]
	},
	{
		"name":"Human.001",
		"primitives":[{
			"attributes":{
				"POSITION":13,
				"NORMAL":14,
				"TEXCOORD_0":15
			},
			"indices":12,
			"material":1
		}]
	},
	{
		"name":"Landscape",
		"primitives":[{
			"attributes":{
				"POSITION":17,
				"NORMAL":18,
				"TEXCOORD_0":19
			},
			"indices":16,
			"material":1
		}]
	}],
	"accessors":[{
		"bufferView":0,
		"type":"SCALAR",
		"componentType":5123,
		"count":1074,
		"byteOffset":0,
		"min":[0],
		"max":[708]
	},
	{
		"bufferView":1,
		"type":"VEC3",
		"componentType":5126,
		"count":709,
		"byteOffset":0,
		"min":[-0.9119795560836792,
		0.005424006376415491,
		-0.42363426089286806],
		"max":[0.9119795560836792,
		5.095381259918213,
		0.4918200969696045]
	},
	{
		"bufferView":1,
		"type":"VEC3",
		"componentType":5126,
		"count":709,
		"byteOffset":12,
		"min":[-0.9995970726013184,
		-1.0,
		-0.9999996423721314],
		"max":[0.9995970726013184,
		0.9845717549324036,
		0.9883699417114258]
	},
	{
		"bufferView":1,
		"type":"VEC2",
		"componentType":5126,
		"count":709,
		"byteOffset":24,
		"min":[0.0,
		0.125],
		"max":[0.75,
		1.0]
	},
	{
		"bufferView":2,
		"type":"SCALAR",
		"componentType":5123,
		"count":60000,
		"byteOffset":0,
		"min":[0],
		"max":[10200]
	},
	{
		"bufferView":3,
		"type":"VEC3",
		"componentType":5126,
		"count":10201,
		"byteOffset":0,
		"min":[-24.983945846557618,
		0.0,
		-22.5174503326416],
		"max":[24.983943939208986,
		6.049534320831299,
		22.5174503326416]
	},
	{
		"bufferView":3,
		"type":"VEC3",
		"componentType":5126,
		"count":10201,
		"byteOffset":12,
		"min":[-0.5432824492454529,
		0.6590369343757629,
		-0.6911335587501526],
		"max":[0.5136946439743042,
		1.0,
		0.5416829586029053]
	},
	{
		"bufferView":3,
		"type":"VEC2",
		"componentType":5126,
		"count":10201,
		"byteOffset":24,
		"min":[0.0,
		0.0],
		"max":[1.0,
		1.0]
	},
	{
		"bufferView":4,
		"type":"SCALAR",
		"componentType":5123,
		"count":1074,
		"byteOffset":0,
		"min":[0],
		"max":[708]
	},
	{
		"bufferView":5,
		"type":"VEC3",
		"componentType":5126,
		"count":709,
		"byteOffset":0,
		"min":[-0.9119795560836792,
		0.005424006376415491,
		-0.42363426089286806],
		"max":[0.9119795560836792,
		5.095381259918213,
		0.4918200969696045]
	},
	{
		"bufferView":5,
		"type":"VEC3",
		"componentType":5126,
		"count":709,
		"byteOffset":12,
		"min":[-0.9995970726013184,
		-1.0,
		-0.9999996423721314],
		"max":[0.9995970726013184,
		0.9845717549324036,
		0.9883699417114258]
	},
	{
		"bufferView":5,
		"type":"VEC2",
		"componentType":5126,
		"count":709,
		"byteOffset":24,
		"min":[0.0,
		0.125],
		"max":[0.75,
		1.0]
	},
	{
		"bufferView":6,
		"type":"SCALAR",
		"componentType":5123,
		"count":1074,
		"byteOffset":0,
		"min":[0],
		"max":[708]
	},
	{
		"bufferView":7,
		"type":"VEC3",
		"componentType":5126,
		"count":709,
		"byteOffset":0,
		"min":[-0.9119795560836792,
		0.005424006376415491,
		-0.42363426089286806],
		"max":[0.9119795560836792,
		5.095381259918213,
		0.4918200969696045]
	},
	{
		"bufferView":7,
		"type":"VEC3",
		"componentType":5126,
		"count":709,
		"byteOffset":12,
		"min":[-0.9995970726013184,
		-1.0,
		-0.9999996423721314],
		"max":[0.9995970726013184,
		0.9845717549324036,
		0.9883699417114258]
	},
	{
		"bufferView":7,
		"type":"VEC2",
		"componentType":5126,
		"count":709,
		"byteOffset":24,
		"min":[0.0,
		0.125],
		"max":[0.75,
		1.0]
	},
	{
		"bufferView":8,
		"type":"SCALAR",
		"componentType":5123,
		"count":60000,
		"byteOffset":0,
		"min":[0],
		"max":[10200]
	},
	{
		"bufferView":9,
		"type":"VEC3",
		"componentType":5126,
		"count":10201,
		"byteOffset":0,
		"min":[-15.909791946411133,
		0.0,
		-15.96541976928711],
		"max":[15.909790992736817,
		6.423086166381836,
		15.965420722961426]
	},
	{
		"bufferView":9,
		"type":"VEC3",
		"componentType":5126,
		"count":10201,
		"byteOffset":12,
		"min":[-0.7275993227958679,
		0.4672364890575409,
		-0.7480626702308655],
		"max":[0.778414785861969,
		1.0,
		0.750811755657196]
	},
	{
		"bufferView":9,
		"type":"VEC2",
		"componentType":5126,
		"count":10201,
		"byteOffset":24,
		"min":[0.0,
		0.0],
		"max":[1.0,
		1.0]
	}],
	"bufferViews":[{
		"buffer":0,
		"byteOffset":0,
		"byteLength":2148,
		"target":34963
	},
	{
		"buffer":0,
		"byteOffset":2148,
		"byteLength":22688,
		"target":34962,
		"byteStride":32
	},
	{
		"buffer":1,
		"byteOffset":0,
		"byteLength":120000,
		"target":34963
	},
	{
		"buffer":1,
		"byteOffset":120000,
		"byteLength":326432,
		"target":34962,
		"byteStride":32
	},
	{
		"buffer":2,
		"byteOffset":0,
		"byteLength":2148,
		"target":34963
	},
	{
		"buffer":2,
		"byteOffset":2148,
		"byteLength":22688,
		"target":34962,
		"byteStride":32
	},
	{
		"buffer":3,
		"byteOffset":0,
		"byteLength":2148,
		"target":34963
	},
	{
		"buffer":3,
		"byteOffset":2148,
		"byteLength":22688,
		"target":34962,
		"byteStride":32
	},
	{
		"buffer":4,
		"byteOffset":0,
		"byteLength":120000,
		"target":34963
	},
	{
		"buffer":4,
		"byteOffset":120000,
		"byteLength":326432,
		"target":34962,
		"byteStride":32
	}],
	"buffers":[{
		"uri":"data:application/octet-stream;base64,",
		"byteLength":24836
	},
	{
		"uri":"data:application/octet-stream;base64,",
		"byteLength":446432
	},
	{
		"uri":"data:application/octet-stream;base64,",
		"byteLength":24836
	},
	{
		"uri":"data:application/octet-stream;base64,",
		"byteLength":24836
	},
	{
		"uri":"data:application/octet-stream;base64,",
		"byteLength":446432
	}],
	"materials":[{
		"pbrMetallicRoughness":{
			"baseColorFactor":[0.76,
			0.76,
			0.76,
			1.0],
			"metallicFactor":0.0,
			"roughnessFactor":1.0
		},
		"emissiveFactor":[0.0,
		0.0,
		0.0],
		"alphaMode":"OPAQUE",
		"doubleSided":true,
		"name":"Default"
	},
	{
		"pbrMetallicRoughness":{
			"baseColorFactor":[0.76,
			0.76,
			0.76,
			1.0],
			"metallicFactor":0.0,
			"roughnessFactor":1.0
		},
		"emissiveFactor":[0.0,
		0.0,
		0.0],
		"alphaMode":"OPAQUE",
		"doubleSided":true,
		"name":"Default"
	}]
}