{
	"asset":{
		"version":"2.0",
		"generator":"Created using the official Cinema 4D glTF Exporter 1.000x284978"
	},
	"bufferViews":[{
		"buffer":0,
		"byteOffset":0,
		"byteLength":2148,
		"target":34963
	},
	{
		"buffer":0,
		"byteOffset":2148,
		"byteLength":22688,
		"target":34962,
		"byteStride":32
	}],
	"scenes":[{
		"nodes":[0]
	}],
	"nodes":[{
		"name":"Human.001",
		"mesh":0
	}],
	"meshes":[{
		"name":"Human.001",
		"primitives":[{
			"attributes":{
				"POSITION":1,
				"NORMAL":2,
				"TEXCOORD_0":3
			},
			"indices":0
		}]
	}],
	"accessors":[{
		"bufferView":0,
		"type":"SCALAR",
		"componentType":5123,
		"count":1074,
		"min":[0],
		"byteOffset":0,
		"max":[708]
	},
	{
		"bufferView":1,
		"type":"VEC3",
		"componentType":5126,
		"count":709,
		"min":[-12.2495698928833,
		0.0728544294834137,
		-5.69019079208374],
		"byteOffset":0,
		"max":[12.2495698928833,
		68.44038391113281,
		6.606052398681641]
	},
	{
		"bufferView":1,
		"type":"VEC3",
		"componentType":5126,
		"count":709,
		"min":[-0.9995971322059631,
		-1.0,
		-0.9999996423721314],
		"byteOffset":12,
		"max":[0.9995971322059631,
		0.9845716953277588,
		0.9883699417114258]
	},
	{
		"bufferView":1,
		"type":"VEC2",
		"componentType":5126,
		"count":709,
		"min":[0.0,
		0.125],
		"byteOffset":24,
		"max":[0.75,
		1.0]
	}],
	"buffers":[{
		"uri":"data:application/octet-stream;base64,",
		"byteLength":24836
	}]
}