{
	"asset":{
		"version":"2.0",
		"generator":"Created using the official Cinema 4D glTF Exporter 1.000x284978"
	},
	"scenes":[{
		"nodes":[0]
	}],
	"nodes":[{
		"name":"无标题.obj",
		"children":[1]
	},
	{
		"name":"John_the_Baptist",
		"translation":[0.0,
		0.0,
		0.0],
		"rotation":[0.7071067690849304,
		0.0,
		0.0,
		-0.7071067690849304],
		"scale":[1.0,
		1.0,
		1.0],
		"mesh":0
	}],
	"meshes":[{
		"name":"John_the_Baptist",
		"primitives":[{
			"attributes":{
				"POSITION":1,
				"NORMAL":2
			},
			"indices":0,
			"material":0
		}]
	}],
	"accessors":[{
		"bufferView":0,
		"type":"SCALAR",
		"componentType":5123,
		"count":35994,
		"byteOffset":0,
		"min":[0],
		"max":[35989]
	},
	{
		"bufferView":1,
		"type":"VEC3",
		"componentType":5126,
		"count":35990,
		"byteOffset":0,
		"min":[-20.7342529296875,
		-20.2806396484375,
		-0.005073999986052513],
		"max":[20.794879913330079,
		20.26572036743164,
		25.515901565551759]
	},
	{
		"bufferView":1,
		"type":"VEC3",
		"componentType":5126,
		"count":35990,
		"byteOffset":12,
		"min":[-0.9999063014984131,
		-0.9999688267707825,
		-1.0],
		"max":[0.9999063014984131,
		0.9999688267707825,
		0.9999688267707825]
	}],
	"bufferViews":[{
		"buffer":0,
		"byteOffset":0,
		"byteLength":71988,
		"target":34963
	},
	{
		"buffer":0,
		"byteOffset":71988,
		"byteLength":863760,
		"target":34962,
		"byteStride":24
	}],
	"buffers":[{
		"uri":"data:application/octet-stream;base64,",
		"byteLength":935748
	}],
	"materials":[{
		"pbrMetallicRoughness":{
			"baseColorFactor":[0.76,
			0.76,
			0.76,
			1.0],
			"metallicFactor":0.0,
			"roughnessFactor":1.0
		},
		"emissiveFactor":[0.0,
		0.0,
		0.0],
		"alphaMode":"OPAQUE",
		"doubleSided":true,
		"name":"Default"
	}]
}